# xmcd
#
# Track frame offsets:
# 150
# 22083
# 37435
# 50135
# 67963
# 82690
# 99395
# 118122
# 133587
# 148571
# 164517
# 182380
# 197311
# 214349
#
# Disc length: 3033 seconds
#
# Revision: 0
# Processed by: cddbd v1.5.2PL0 Copyright (c) Steve Scherf et al.
# Submitted via: Axialis_AX_CDPlayer 2.6
#
DISCID=c70bd70e
DTITLE=Chitãozinho e Xororó - De Coração para Coração Vol. 1
DYEAR=1900
DGENRE=
TTITLE0=De Coração para Coração
TTITLE1=Galopeira
TTITLE2=Ave-Maria
TTITLE3=Chitãozinho e Xororó
TTITLE4=Planeta Azul
TTITLE5=Ela Chora, Chora
TTITLE6=Nuvem de Lágrimas
TTITLE7=Pura Emoção
TTITLE8=Terra Tombada
TTITLE9=É Disso que o Velho Gosta
TTITLE10=Foi Por Amor
TTITLE11=Pé na Estrada
TTITLE12=Meu Disfarce
TTITLE13=Fotografia
EXTD=
EXTT0=
EXTT1=
EXTT2=
EXTT3=
EXTT4=
EXTT5=
EXTT6=
EXTT7=
EXTT8=
EXTT9=
EXTT10=
EXTT11=
EXTT12=
EXTT13=
PLAYORDER=
